<svg width="36" height="36" fill="none" xmlns="http://www.w3.org/2000/svg"><path d="M18 35c9.3888 0 17-7.6112 17-17 0-9.38884-7.6112-17-17-17C8.61116 1 1 8.61116 1 18c0 9.3888 7.61116 17 17 17z" stroke="#fff" stroke-opacity=".5" stroke-width="2"/><path d="M18.64 16.49a2.5807 2.5807 0 00.95-.18 1.2003 1.2003 0 00.64-.56c.1043-.2536.1554-.5259.15-.8a1.55022 1.55022 0 00-.18-.7 1.05012 1.05012 0 00-.61-.51 3.00056 3.00056 0 00-1-.17h-2v3h.57c.59-.05 1.08-.06 1.48-.08zM20.12 19.08A4.85132 4.85132 0 0019 19h-2.39v3.5h2.45a3.23034 3.23034 0 001.21-.25c.321-.1108.5932-.3301.77-.62a1.8992 1.8992 0 00.22-.9 1.76004 1.76004 0 00-.26-1 1.59985 1.59985 0 00-.88-.65z" fill="#fff" fill-opacity=".8"/><path d="M18 2A16.00002 16.00002 0 002.30744 21.1214a16 16 0 004.37886 8.1923 16.00073 16.00073 0 008.1923 4.3789c3.1037.6173 6.3207.3005 9.2443-.9105a15.99962 15.99962 0 007.1806-5.893A16 16 0 0034 18c0-4.2435-1.6857-8.31313-4.6863-11.31371C26.3131 3.68571 22.2435 2 18 2zm6.6 20.53c-.2624.526-.6463.9819-1.12 1.33a5.17025 5.17025 0 01-1.83.88 9.76082 9.76082 0 01-2.51.27H13V11h5.45c.8281-.0132 1.6563.0235 2.48.11.543.084 1.0694.2527 1.56.5.4968.2362.9113.6158 1.19 1.09.2655.4728.4001 1.0079.39 1.55a3.08022 3.08022 0 01-.54 1.8 3.4601 3.4601 0 01-1.53 1.2v.07a3.99985 3.99985 0 012.18 1.13c.5495.6212.8363 1.4315.8 2.26a3.84098 3.84098 0 01-.38 1.82z" fill="#fff" fill-opacity=".8"/></svg>