<svg width="20" height="20" fill="none" xmlns="http://www.w3.org/2000/svg"><path d="M17.3913 1.73913c.2306 0 .4518.09161.6149.25469a.86948.86948 0 01.2547.61488v14.7826a.86961.86961 0 01-.8696.8696H2.6087a.86948.86948 0 01-.61488-.2547.86969.86969 0 01-.25469-.6149V2.6087a.86955.86955 0 01.86957-.86957h14.7826zm0-1.73913H2.6087A2.6087 2.6087 0 000 2.6087v14.7826c0 .6919.27484 1.3554.76407 1.8446A2.60841 2.60841 0 002.6087 20h14.7826c.6919 0 1.3554-.2748 1.8446-.7641A2.60825 2.60825 0 0020 17.3913V2.6087a2.60841 2.60841 0 00-.7641-1.84463A2.60854 2.60854 0 0017.3913 0z" fill="#fff" fill-opacity=".8"/></svg>