<svg width="36" height="36" fill="none" xmlns="http://www.w3.org/2000/svg"><path d="M18 35c9.3888 0 17-7.6112 17-17 0-9.38884-7.6112-17-17-17C8.61116 1 1 8.61116 1 18c0 9.3888 7.61116 17 17 17z" stroke="#fff" stroke-opacity=".5" stroke-width="2"/><path d="M18 2A16.00002 16.00002 0 002.30744 21.1214a16 16 0 004.37886 8.1923 16.00073 16.00073 0 008.1923 4.3789c3.1037.6173 6.3207.3005 9.2443-.9105a15.99962 15.99962 0 007.1806-5.893A16 16 0 0034 18c0-4.2435-1.6857-8.31313-4.6863-11.31371C26.3131 3.68571 22.2435 2 18 2zm7.94 12.81c-.25 6.52-3.46 10.83-11 10.7h-.48c-.45 0-4.54999-.44-5.34999-1.82A7.32022 7.32022 0 0014.23 22.55c-1.05-.29-2.92-.46-3.25-2.85.4128.1642.8641.2058 1.3.12C11 19 9.53001 18.3 9.61001 16.17c.41799.3193.93449.482 1.45999.46-.77-.23-2.14999-3.24-1-4.78 2 1.79 4.07 3.48 7.8 3.64.23-2.21 1.24-3.7 3.17-4.32a3.60954 3.60954 0 012.1586-.0505A3.60943 3.60943 0 0125 12.31c.74-.23 1.45-.47 2.19-.69a2.21014 2.21014 0 01-.93 1.71c.2567.0301.5168.0036.7621-.0776.2453-.0812.4699-.2152.6579-.3924a2.90059 2.90059 0 01-.6379 1.1821 2.9 2.9 0 01-1.1021.7679z" fill="#fff" fill-opacity=".8"/></svg>