<svg width="34" height="27" fill="none" xmlns="http://www.w3.org/2000/svg"><path d="M6.94683.79507C6.05965 3.4036 5.28819 6.0316 4.56495 8.66935A48.63301 48.63301 0 013.6392.1916c0-.41853-1.87078-.10707-1.86114.50613.12619 4.08206.68876 8.13843 1.67792 12.09857C2.30844 17.2542 1.2284 21.7315.00371 26.1991c-.09643.3796 1.71649.1363 1.84186-.3407.86789-3.173 1.65863-6.3558 2.45902-9.5386.7811 3.1244 1.59113 6.239 2.19865 9.4024.09643.4964 1.92864.0487 1.86114-.5062-.82932-4.341-2.04436-8.5945-3.03761-12.8869C6.35859 8.34815 7.45792 4.38667 8.77904.46413 8.9044.104 7.10112.31813 6.94683.79507zM20.8427 1.31093c.0482-.97333-1.8515-.77866-1.9286.1168a1.89672 1.89672 0 000 .23361.56772.56772 0 00-.0965.2044A133.2962 133.2962 0 0114.9314 14.597c-.6172 1.8785-1.0993 3.7862-1.6104 5.694-.1254-6.463-.1254-12.89672-.1543-19.32073 0-.97334-1.9286-.74947-1.9286.13626 0 8.10789 0 16.19627.2893 24.33337a.5778.5778 0 000 .292l.0578.4283c.1157.8371 1.9287.4672 1.9287-.3018 1.5718-4.0588 2.3818-8.3609 3.7512-12.4976.5014-1.5184 1.0125-3.027 1.5043-4.53572-.0675 5.84002.0579 11.68002.2025 17.52002 0 .9734 1.5236.7495 1.8419.0584l.0578-.1168a.47977.47977 0 00.0815-.2676.47985.47985 0 00-.0815-.2677c-.2411-8.2344-.4146-16.33258-.0289-24.44047zM33.3017.20133A51.09583 51.09583 0 0124.1696.25c-.4822 0-2.1601.82733-1.1861.876.974.04867 2.1119.10707 3.163.146-.0965.07787-.164.16547-.1543.25307.2796 8.18575-1.0222 16.78033.1832 24.88823.0579.4088 1.9286 0 1.8611-.5062-1.1861-8.0105.0675-16.54668-.1735-24.59617a39.61167 39.61167 0 005.1398-.2628c.8197-.07786 1.6104-1.00253.2989-.8468z" fill="#231F20"/></svg>