<svg width="22" height="22" fill="none" xmlns="http://www.w3.org/2000/svg"><path d="M11 3.52c1.4794 0 2.9256.43869 4.1557 1.26061a7.48006 7.48006 0 012.7549 3.35692 7.47975 7.47975 0 01.4257 4.32177 7.4798 7.4798 0 01-2.0471 3.8299 7.4798 7.4798 0 01-3.8299 2.0471 7.47975 7.47975 0 01-4.32177-.4257 7.4801 7.4801 0 01-3.35692-2.7549A7.4802 7.4802 0 013.52 11c.00233-1.98311.79115-3.88432 2.19342-5.28659C7.11568 4.31115 9.0169 3.52233 11 3.52zM11 0A11.00003 11.00003 0 00.83733 6.79048a11.00002 11.00002 0 002.3845 11.98772 11.0002 11.0002 0 005.63218 3.0104 10.99993 10.99993 0 006.35549-.6259c2.01-.8326 3.728-2.2425 4.9367-4.0514A11.00015 11.00015 0 0022 11c0-2.91738-1.1589-5.71528-3.2218-7.77818C16.7153 1.15893 13.9174 0 11 0z" fill="#fff" fill-opacity=".8"/></svg>