<svg width="36" height="36" fill="none" xmlns="http://www.w3.org/2000/svg"><path d="M18 35c9.3888 0 17-7.6112 17-17 0-9.38884-7.6112-17-17-17C8.61116 1 1 8.61116 1 18c0 9.3888 7.61116 17 17 17z" stroke="#fff" stroke-opacity=".5" stroke-width="2"/><path d="M18 2A16.00002 16.00002 0 002.30744 21.1214a16 16 0 004.37886 8.1923 16.00073 16.00073 0 008.1923 4.3789c3.1037.6173 6.3207.3005 9.2443-.9105a15.99962 15.99962 0 007.1806-5.893A16 16 0 0034 18c0-4.2435-1.6857-8.31313-4.6863-11.31371C26.3131 3.68571 22.2435 2 18 2zm4.06 9.45H19v3.45h3v3.44h-3V27h-3v-8.66h-3V14.9h3v-3.45A3.25001 3.25001 0 0119 8h3v3.45h.06z" fill="#fff" fill-opacity=".8"/></svg>