<svg width="36" height="36" fill="none" xmlns="http://www.w3.org/2000/svg"><path d="M18 35c9.3888 0 17-7.6112 17-17 0-9.38884-7.6112-17-17-17C8.61116 1 1 8.61116 1 18c0 9.3888 7.61116 17 17 17z" stroke="#fff" stroke-opacity=".5" stroke-width="2"/><g opacity=".8" fill="#fff"><path d="M22.92 18a4.95999 4.95999 0 01-4.96 4.96 4.95966 4.95966 0 01-3.5072-1.4528A4.95966 4.95966 0 0113 18c.001-.3842.048-.767.14-1.14h-.9v6.84h11.4v-6.84h-.9c.1006.3725.161.7547.18 1.14z"/><path d="M18 20.66a2.66022 2.66022 0 002.4432-1.6558 2.65974 2.65974 0 00.1432-1.5353 2.65984 2.65984 0 00-.7325-1.3568 2.66065 2.66065 0 00-1.3623-.7224 2.65938 2.65938 0 00-1.5341.1548 2.66037 2.66037 0 00-1.1906.9798A2.66 2.66 0 0015.32 18c.0013.3506.0717.6976.2071 1.021.1354.3234.3331.617.582.8641.2489.247.5439.4425.8684.5755.3244.133.6719.2007 1.0225.1994zM23.68 12.3h-3.04v3.04h3.04V12.3z"/><path d="M18 2A16.00002 16.00002 0 002.30744 21.1214a16 16 0 004.37886 8.1923 16.00073 16.00073 0 008.1923 4.3789c3.1037.6173 6.3207.3005 9.2443-.9105a15.99962 15.99962 0 007.1806-5.893A16 16 0 0034 18c0-4.2435-1.6857-8.31313-4.6863-11.31371C26.3131 3.68571 22.2435 2 18 2zm8 21.7c.0027.3045-.0556.6064-.1715.888a2.27793 2.27793 0 01-.5032.7515 2.27835 2.27835 0 01-.7558.4967c-.2826.1135-.585.1692-.8895.1638h-11.4a2.2901 2.2901 0 01-.8756-.1781 2.28971 2.28971 0 01-.7407-.4997A2.28996 2.28996 0 0110 23.7V12.3a2.28996 2.28996 0 01.6637-1.6222c.2117-.2136.4634-.3834.7407-.4997A2.2901 2.2901 0 0112.28 10h11.39c.3049-.00533.6078.0503.891.1636.2831.1133.5407.2821.7578.4963.217.2143.3891.4697.5061.7513.1169.2817.1765.5838.1751.8888v11.4z"/></g></svg>